<?xml version="1.0" ?><!DOCTYPE svg  PUBLIC '-//W3C//DTD SVG 1.1//EN'  'http://www.w3.org/Graphics/SVG/1.1/DTD/svg11.dtd'><svg height="64.001px" id="Layer_1" style="enable-background:new 0 0 36 64.001;" version="1.1" viewBox="0 0 36 64.001" width="36px" xml:space="preserve" xmlns="http://www.w3.org/2000/svg" xmlns:xlink="http://www.w3.org/1999/xlink"><g id="Buckle"><g><path d="M31.892,11.991c0.045,0.004,0.108,0.01,0.108,0.01    s-1.448-0.197-2-2L28.223,2c0-1.104-0.91-2-2.032-2H9.937C8.814,0,7.904,0.896,7.904,2L6,10.001c-0.534,2.302-2,2-2,2v2h28v-2    C31.949,11.996,31.916,11.993,31.892,11.991z M4,52c0,0,1.448,0.197,2,2l1.777,8.001c0,1.104,0.909,2,2.032,2h16.254    c1.122,0,2.031-0.896,2.031-2L30,54c0.533-2.302,2-2,2-2v-2H4V52z" style="fill-rule:evenodd;clip-rule:evenodd;fill:#48A0DC;"/></g></g><g id="Frame"><g><path d="M30,12.001H6c-3.314,0-6,2.686-6,5.999v28.001C0,49.314,2.686,52,6,52h24c3.313,0,6-2.686,6-5.999    V18C36,14.687,33.313,12.001,30,12.001z" style="fill:#333333;"/></g></g><g id="Display_1_"><g><rect height="27.99" style="fill:#4D4D4D;" width="27.967" x="4.02" y="18.005"/></g></g><g id="App_Shape"><g><circle cx="18" cy="32" r="4" style="fill:#EAF1F6;"/></g></g><g id="App_Shape_11_"><g><circle cx="22" cy="24" r="2" style="fill:#48A0DC;"/></g></g><g id="App_Shape_9_"><g><circle cx="22" cy="40" r="2" style="fill:#FFCC66;"/></g></g><g id="App_Shape_7_"><g><circle cx="26" cy="32" r="2" style="fill:#88C057;"/></g></g><g id="App_Shape_4_"><g><circle cx="10" cy="32" r="2" style="fill:#9B7CAB;"/></g></g><g id="App_Shape_5_"><g><circle cx="14" cy="24" r="2" style="fill:#FF8833;"/></g></g><g id="App_Shape_6_"><g><circle cx="14" cy="40" r="2" style="fill:#F06EAA;"/></g></g><g/><g/><g/><g/><g/><g/><g/><g/><g/><g/><g/><g/><g/><g/><g/></svg>